<?xml version="1.0" standalone="no"?>
<!DOCTYPE svg PUBLIC "-//W3C//DTD SVG 20010904//EN"
 "http://www.w3.org/TR/2001/REC-SVG-20010904/DTD/svg10.dtd">
<svg version="1.0" xmlns="http://www.w3.org/2000/svg"
 width="600.000000pt" height="600.000000pt" viewBox="0 0 600.000000 600.000000"
 preserveAspectRatio="xMidYMid meet">
<metadata>
Created by potrace 1.11, written by Peter Selinger 2001-2013
</metadata>
<g transform="translate(0.000000,600.000000) scale(0.100000,-0.100000)"
fill="#000000" stroke="none">
<path d="M2936 5311 c-15 -181 -91 -377 -206 -530 -34 -44 -131 -147 -216
-228 -351 -336 -512 -575 -586 -871 -18 -70 -22 -116 -22 -237 1 -353 103
-625 313 -835 81 -81 162 -138 306 -214 194 -104 321 -214 362 -314 12 -29 20
-52 18 -52 -2 0 -20 25 -40 55 -76 114 -177 185 -392 276 -265 112 -341 157
-444 265 -211 223 -299 518 -317 1073 -5 174 -10 225 -20 229 -12 4 -13 -117
-9 -729 4 -692 5 -741 25 -854 30 -167 56 -255 108 -360 127 -261 343 -405
687 -460 128 -20 196 -52 275 -131 77 -77 126 -174 152 -305 18 -92 50 -366
50 -434 0 -19 4 -35 9 -35 29 0 26 954 -3 1138 -38 231 -94 372 -192 481 -31
34 -120 107 -198 163 -237 171 -330 284 -362 439 -41 198 55 384 312 605 129
109 218 211 281 319 l38 65 153 0 152 0 0 -1492 0 -1492 45 44 45 44 0 1448 0
1448 493 0 494 0 31 39 c18 22 32 42 32 45 0 3 -236 6 -525 6 l-525 0 0 616 0
616 -45 -49 -44 -48 -1 -567 0 -568 -134 0 -134 0 14 48 c48 154 47 145 51
800 4 531 2 622 -10 622 -10 0 -16 -21 -21 -79z"/>
</g>
</svg>
